<svg width="32" height="33" viewBox="0 0 32 33" fill="none" xmlns="http://www.w3.org/2000/svg">
<rect y="0.259033" width="32" height="32" rx="16" fill="#C92E17"/>
<g clip-path="url(#clip0_21_91)">
<path d="M15.9744 24.2477C13.9781 24.2477 11.9817 24.2326 9.98539 24.2572C9.38192 24.2647 8.98396 23.7475 9.0005 23.2688C9.08671 20.7908 10.6315 18.6762 13.0213 18.0331C13.5861 17.8812 14.1861 17.8251 14.773 17.8005C15.6737 17.7629 16.5779 17.7619 17.4786 17.7965C19.5847 17.8767 21.2182 18.7904 22.2858 20.6359C22.7419 21.4238 22.9283 22.2924 22.9965 23.1931C23.0426 23.8011 22.5935 24.2662 21.988 24.2582C19.9837 24.2316 17.9788 24.2482 15.9739 24.2482L15.9744 24.2477Z" fill="white"/>
<path d="M16.0039 16.2282C13.8878 16.2949 12.0177 14.494 12.0208 12.2952C12.0238 10.0507 13.784 8.25787 15.9969 8.26038C18.2519 8.26339 20.1009 10.1655 19.9766 12.4876C19.8718 14.4524 18.1677 16.2854 16.0039 16.2282Z" fill="white"/>
</g>
<defs>
<clipPath id="clip0_21_91">
<rect width="14" height="15.9974" fill="white" transform="translate(9 8.26038)"/>
</clipPath>
</defs>
</svg>
