<svg width="15" height="13" viewBox="0 0 15 13" fill="none" xmlns="http://www.w3.org/2000/svg">
<path d="M11.2978 7.2219C11.1537 7.2219 11.0096 7.2219 10.8654 7.2219C7.59145 7.2219 4.31747 7.22271 1.0427 7.21949C0.843812 7.21949 0.636069 7.20902 0.448456 7.15104C0.104632 7.04556 -0.0298374 6.76535 0.00478653 6.42797C0.0386052 6.09139 0.223803 5.85305 0.579704 5.79749C0.69807 5.77897 0.820461 5.79024 0.941242 5.79024C4.24259 5.79024 7.54313 5.79024 10.8445 5.79024H11.4629C11.1923 5.51406 11.0087 5.31759 10.8147 5.13078C9.66405 4.02442 8.50938 2.9221 7.36116 1.81333C6.96741 1.43327 6.9344 1.04757 7.24199 0.713413C7.53186 0.398577 7.9868 0.434006 8.37894 0.807622C10.1278 2.47118 11.8768 4.13554 13.6241 5.80152C14.1587 6.31121 14.1611 6.67597 13.6224 7.1913C11.8679 8.86935 10.1125 10.5458 8.35076 12.215C7.84992 12.6893 7.1816 12.5548 7.08417 11.9412C7.04552 11.7005 7.18562 11.3494 7.36438 11.1698C8.33063 10.202 9.33633 9.27357 10.3251 8.32826C10.6698 7.99893 11.0031 7.65752 11.3413 7.32175C11.326 7.28873 11.3115 7.25572 11.2962 7.22271L11.2978 7.2219Z" fill="#C92E17"/>
</svg>
