<svg width="14" height="16" viewBox="0 0 14 16" fill="none" xmlns="http://www.w3.org/2000/svg">
<g clip-path="url(#clip0_671_684)">
<path d="M0.00915527 6.00827H0.335256C4.7685 6.00827 9.20118 6.01113 13.6339 6.00141C13.9296 6.00083 13.9994 6.08779 13.9983 6.37213C13.988 9.02212 13.9931 11.6727 13.992 14.3227C13.992 15.3725 13.3913 15.9669 12.338 15.9669C8.77267 15.9669 5.20731 15.9669 1.64195 15.9669C0.611583 15.9669 0.00972738 15.3651 0.00915527 14.333C0.00915527 11.6635 0.00915527 8.99409 0.00915527 6.32522C0.00915527 6.23197 0.00915527 6.13814 0.00915527 6.0077V6.00827Z" fill="#C92E17"/>
<path d="M6.97057 4.9613C4.76853 4.9613 2.5665 4.95558 0.364462 4.96817C0.0675389 4.96988 -0.0188491 4.88292 0.00403516 4.59687C0.0280636 4.29366 0.00918411 3.98701 0.00975622 3.68207C0.0114725 2.62253 0.612184 2.01553 1.67401 2.00294C2.02643 1.99894 2.37999 1.99093 2.73184 2.00638C2.95267 2.0161 3.01102 1.92857 3.00645 1.72261C3.00015 1.4377 3.00073 1.14879 3.03677 0.866742C3.10656 0.315805 3.50761 -0.0223099 4.02594 0.0011464C4.58489 0.026319 4.95046 0.407914 4.96248 0.984024C4.9682 1.25063 4.96877 1.5178 4.96248 1.78497C4.95847 1.94573 5.02712 2.00409 5.18331 2.00352C6.39388 2.00066 7.60446 2.00066 8.81561 2.00352C8.97351 2.00352 9.03987 1.94631 9.03587 1.78554C9.029 1.50922 9.03072 1.23289 9.0353 0.955991C9.04388 0.38789 9.46152 -0.0125841 10.0262 0.000574292C10.5754 0.0137327 10.9581 0.414779 10.9587 0.978303C10.9587 1.21687 10.9702 1.45544 10.9553 1.69286C10.941 1.92571 11.0222 2.01095 11.2631 2.00752C11.7288 2.00123 12.1968 2.00409 12.6607 2.04299C13.5509 2.11794 13.964 2.8222 13.9897 3.56308C14.0017 3.90577 13.9749 4.25075 13.9972 4.59229C14.0155 4.87549 13.9314 4.96931 13.6333 4.9676C11.4124 4.95501 9.19091 4.96073 6.96999 4.96073L6.97057 4.9613Z" fill="#C92E17"/>
</g>
<defs>
<clipPath id="clip0_671_684">
<rect width="14" height="15.9675" fill="white"/>
</clipPath>
</defs>
</svg>
