<svg width="32" height="33" viewBox="0 0 32 33" fill="none" xmlns="http://www.w3.org/2000/svg">
<rect y="0.259033" width="32" height="32" rx="16" fill="#C92E17"/>
<g clip-path="url(#clip0_21_67)">
<path d="M9.00916 14.2835H9.33526C13.7685 14.2835 18.2012 14.2864 22.6339 14.2767C22.9296 14.2761 22.9994 14.3631 22.9983 14.6474C22.988 17.2974 22.9931 19.948 22.992 22.598C22.992 23.6478 22.3913 24.2422 21.338 24.2422C17.7727 24.2422 14.2073 24.2422 10.6419 24.2422C9.61158 24.2422 9.00973 23.6403 9.00916 22.6083C9.00916 19.9388 9.00916 17.2694 9.00916 14.6005C9.00916 14.5072 9.00916 14.4134 9.00916 14.283V14.2835Z" fill="white"/>
<path d="M15.9705 13.2366C13.7685 13.2366 11.5664 13.2309 9.3644 13.2434C9.06748 13.2452 8.98109 13.1582 9.00397 12.8721C9.028 12.5689 9.00912 12.2623 9.0097 11.9573C9.01141 10.8978 9.61212 10.2908 10.674 10.2782C11.0264 10.2742 11.3799 10.2662 11.7318 10.2816C11.9526 10.2914 12.011 10.2038 12.0064 9.99788C12.0001 9.71297 12.0007 9.42406 12.0367 9.14201C12.1065 8.59107 12.5075 8.25296 13.0259 8.27641C13.5848 8.30159 13.9504 8.68318 13.9624 9.25929C13.9681 9.52589 13.9687 9.79307 13.9624 10.0602C13.9584 10.221 14.0271 10.2794 14.1832 10.2788C15.3938 10.2759 16.6044 10.2759 17.8155 10.2788C17.9734 10.2788 18.0398 10.2216 18.0358 10.0608C18.0289 9.78449 18.0307 9.50816 18.0352 9.23126C18.0438 8.66316 18.4615 8.26268 19.0261 8.27584C19.5753 8.289 19.9581 8.69005 19.9587 9.25357C19.9587 9.49214 19.9701 9.73071 19.9552 9.96813C19.9409 10.201 20.0222 10.2862 20.263 10.2828C20.7287 10.2765 21.1967 10.2794 21.6607 10.3183C22.5509 10.3932 22.9639 11.0975 22.9897 11.8383C23.0017 12.181 22.9748 12.526 22.9971 12.8676C23.0154 13.1508 22.9313 13.2446 22.6333 13.2429C20.4123 13.2303 18.1908 13.236 15.9699 13.236L15.9705 13.2366Z" fill="white"/>
</g>
<defs>
<clipPath id="clip0_21_67">
<rect width="14" height="15.9675" fill="white" transform="translate(9 8.27527)"/>
</clipPath>
</defs>
</svg>
