<svg width="32" height="33" viewBox="0 0 32 33" fill="none" xmlns="http://www.w3.org/2000/svg">
<rect y="0.259033" width="32" height="32" rx="16" fill="#C92E17"/>
<g clip-path="url(#clip0_94_49)">
<path d="M8.8033 17.3378C8.54871 17.6696 8.29584 18.0026 8.03889 18.3327C7.7916 18.6504 7.46516 18.7853 7.06794 18.7173C6.69946 18.654 6.44445 18.4455 6.31361 18.0884C6.20466 17.7909 6.25056 17.5089 6.42943 17.264C7.07909 16.3745 7.69465 15.4546 8.40694 14.6173C10.0025 12.7412 12.7596 12.851 14.252 14.8092C14.8321 15.5704 15.4089 16.3342 15.9822 17.1005C16.25 17.4587 16.3198 17.8414 16.0935 18.2527C15.8917 18.6195 15.5553 18.7853 15.1746 18.7164C14.9261 18.6714 14.6693 18.4994 14.484 18.3158C14.1981 18.032 13.9703 17.6897 13.7179 17.3723C13.6896 17.3843 13.6611 17.3961 13.6327 17.4081C13.6501 17.4926 13.6596 17.5797 13.6864 17.6612C13.9442 18.4425 14.2063 19.2224 14.4645 20.0037C14.6226 20.482 14.442 20.7358 13.9414 20.745C13.6361 20.7506 13.4834 20.9114 13.4833 21.2276C13.4833 21.8734 13.4923 22.5194 13.48 23.165C13.4676 23.8241 13.1712 24.1844 12.6221 24.2444C11.9903 24.3137 11.5392 23.9236 11.5306 23.2806C11.521 22.5458 11.5248 21.8107 11.53 21.0759C11.5313 20.8792 11.5291 20.7381 11.2576 20.7364C10.9876 20.7347 10.9462 20.8529 10.949 21.0798C10.958 21.8034 10.9547 22.5273 10.9515 23.251C10.9487 23.8792 10.5936 24.2457 9.99495 24.2466C9.40513 24.2474 9.02314 23.8689 9.01735 23.2595C9.01049 22.5359 9.00727 21.812 9.01992 21.0884C9.02443 20.831 8.94485 20.7373 8.6774 20.7392C7.99878 20.7441 7.84436 20.5082 8.06313 19.8693C8.31128 19.1441 8.55364 18.4168 8.79493 17.6893C8.82861 17.5876 8.84105 17.4791 8.86357 17.3738C8.84362 17.3618 8.82346 17.35 8.80351 17.338L8.8033 17.3378Z" fill="white"/>
<path d="M18.9339 17.7691C18.8251 17.931 18.7173 18.0934 18.6079 18.2547C18.2879 18.7257 17.7176 18.8732 17.2659 18.6025C16.8005 18.3237 16.6495 17.7313 16.9534 17.2361C17.5059 16.3357 18.07 15.4422 18.6473 14.5577C19.786 12.8131 22.8188 12.8255 23.9371 14.6235C24.4833 15.5016 25.0521 16.3657 25.601 17.2423C25.8728 17.6764 25.7447 18.2795 25.3436 18.5539C24.9016 18.8563 24.3364 18.7709 24.0027 18.342C23.8637 18.1633 23.7438 17.9698 23.6151 17.783L23.5315 17.8105C23.5244 17.9256 23.5111 18.041 23.5111 18.1562C23.5098 19.815 23.5128 21.4736 23.5094 23.1324C23.5081 23.7117 23.2687 24.0881 22.8447 24.2093C22.1532 24.407 21.5752 23.9997 21.5628 23.2797C21.5471 22.3783 21.5514 21.4764 21.5621 20.5747C21.5651 20.3246 21.4783 20.2467 21.2323 20.2517C20.9873 20.2566 20.9676 20.3887 20.968 20.5751C20.9708 21.4768 20.9702 22.3785 20.9689 23.2801C20.968 23.8547 20.6414 24.214 20.0925 24.2489C19.5331 24.2846 19.1205 23.9523 19.0454 23.4003C19.0306 23.2907 19.0332 23.1783 19.0332 23.0669C19.0328 21.4193 19.0336 19.7719 19.0321 18.1243C19.0321 18.0106 19.0165 17.8969 19.0081 17.7834C18.9834 17.7787 18.9586 17.7738 18.9339 17.7691Z" fill="white"/>
<path d="M19.3123 10.2258C19.3136 9.15703 20.1898 8.27166 21.2585 8.25922C22.335 8.24678 23.239 9.16626 23.236 10.2702C23.233 11.3269 22.3417 12.2434 21.2813 12.2316C20.0122 12.2177 19.2486 11.1429 19.3126 10.2258H19.3123Z" fill="white"/>
<path d="M13.2142 10.262C13.2093 11.3359 12.2946 12.2477 11.2325 12.2368C10.1598 12.2258 9.26803 11.3128 9.27618 10.2339C9.28411 9.15468 10.2036 8.23949 11.2603 8.25922C12.3396 8.27939 13.2192 9.18085 13.2142 10.2618V10.262Z" fill="white"/>
</g>
<defs>
<clipPath id="clip0_94_49">
<rect width="19.4896" height="16" fill="white" transform="translate(6.25513 8.25903)"/>
</clipPath>
</defs>
</svg>
