<svg width="32" height="33" viewBox="0 0 32 33" fill="none" xmlns="http://www.w3.org/2000/svg">
<rect y="0.259033" width="32" height="32" rx="16" fill="#C92E17"/>
<g clip-path="url(#clip0_21_80)">
<path d="M15.9975 23.2553C12.087 23.2749 8.93834 20.0711 9.00104 16.1454C9.05923 12.4967 11.9415 9.26332 16.0056 9.26282C20.0576 9.26232 23.0447 12.5373 23 16.3531C22.9559 20.1127 19.9146 23.2698 15.998 23.2553H15.9975ZM16.6732 14.1239C16.6732 13.6058 16.6797 13.0871 16.6712 12.5689C16.6632 12.0603 16.314 11.7879 15.8195 11.8898C15.5095 11.9535 15.3274 12.2108 15.3269 12.6066C15.3244 13.8104 15.3289 15.0148 15.3239 16.2187C15.3229 16.5076 15.4473 16.7103 15.681 16.8648C16.3015 17.2746 16.9195 17.6874 17.538 18.0997C17.7813 18.2617 18.019 18.4333 18.2683 18.5853C18.6074 18.7914 18.9716 18.7072 19.1918 18.3876C19.397 18.0902 19.3423 17.7511 19.0448 17.4963C18.9751 17.4366 18.8994 17.3839 18.8231 17.3328C18.165 16.8903 17.5019 16.4544 16.8518 16.001C16.7615 15.9383 16.6852 15.7908 16.6812 15.6799C16.6632 15.1623 16.6732 14.6436 16.6727 14.1249L16.6732 14.1239Z" fill="white"/>
</g>
<defs>
<clipPath id="clip0_21_80">
<rect width="14" height="13.9925" fill="white" transform="translate(9 9.26282)"/>
</clipPath>
</defs>
</svg>
