<svg width="40" height="41" viewBox="0 0 40 41" fill="none" xmlns="http://www.w3.org/2000/svg">
<g clip-path="url(#clip0_517_1090)">
<path d="M33.1159 3.70836C32.9738 4.16914 32.8954 4.66074 32.6798 5.0842C31.4578 7.4903 30.3829 9.99699 28.9143 12.2473C27.1795 14.9082 24.4873 16.5793 21.6743 18.0168C19.5719 19.0909 17.4564 20.1487 15.4046 21.3136C11.7192 23.4066 8.97478 26.4292 6.95567 30.1154C6.29407 31.3242 5.72395 32.5881 4.99537 33.7546C4.69642 34.2316 4.141 34.6924 3.61009 34.8481C2.96809 35.0363 2.57276 34.436 2.24931 33.9039C0.377219 30.8228 -0.36933 27.4676 0.171387 23.9404C1.88502 12.786 8.55822 5.57418 18.8547 1.51642C22.9158 -0.0833177 27.1876 -0.180665 31.3843 1.36716C32.5131 1.78413 33.062 2.53046 33.1143 3.70836H33.1159Z" fill="#C92E17"/>
<path d="M14.511 40.259C12.737 39.9053 10.9367 39.6441 9.1937 39.1736C7.14028 38.6187 6.55873 37.2737 7.51764 35.3916C8.51086 33.4415 9.54002 31.4978 10.7146 29.6514C12.5899 26.7018 15.2902 24.6202 18.35 22.9766C20.8591 21.6284 23.4222 20.371 25.8759 18.9286C30.0301 16.4868 32.5344 12.6562 34.4963 8.41346C34.7577 7.84885 34.9423 7.22907 35.3033 6.73585C35.5925 6.34159 36.0842 5.87919 36.5056 5.85972C36.9336 5.84025 37.5397 6.22315 37.7978 6.6093C38.925 8.29665 39.5931 10.1868 39.8414 12.1954C40.5765 18.1498 38.7404 23.4179 35.2821 28.1717C31.6424 33.1737 26.9835 36.92 21.0454 38.961C18.9478 39.683 16.785 40.053 14.56 40.0286C14.5453 40.1049 14.529 40.1828 14.5143 40.259H14.511Z" fill="#C92E17"/>
</g>
<defs>
<clipPath id="clip0_517_1090">
<rect width="40" height="40" fill="white" transform="translate(0 0.259033)"/>
</clipPath>
</defs>
</svg>
