<svg width="40" height="41" viewBox="0 0 40 41" fill="none" xmlns="http://www.w3.org/2000/svg">
<g clip-path="url(#clip0_517_1100)">
<path d="M20.0033 40.259C8.97254 40.259 -0.00333769 31.3226 9.31059e-07 20.3408C0.00333955 9.23382 8.96086 0.257364 20.0384 0.259033C31.0692 0.260703 40.0067 9.28725 40 20.4177C39.9933 31.331 30.9957 40.259 20.0033 40.259ZM21.5975 20.224C18.9133 20.7399 16.8784 19.2856 14.8251 17.9498C13.8836 17.337 13.9287 16.0496 14.8569 15.4235C15.573 14.9393 16.3342 14.6805 17.2156 15.0311C17.7548 15.2448 18.3274 15.3801 18.8916 15.532C19.601 15.7241 20.2354 15.6105 20.6444 14.946C21.0567 14.2764 20.9582 13.6135 20.4758 13.0107C20.1986 12.6634 19.8715 12.3562 19.5977 12.0056C18.6812 10.8317 18.7063 9.66127 19.6494 8.51584C20.0551 8.0216 20.4707 7.53404 20.8647 7.03145C21.4056 6.34018 21.4773 5.56877 21.2353 4.74225C21.0834 4.22297 20.7862 3.91407 20.217 3.97084C19.0034 4.08939 17.7648 4.09774 16.5813 4.35822C10.7403 5.6389 6.86086 9.2238 4.67908 14.7239C4.57558 14.986 4.53218 15.3634 4.64068 15.6038C5.35515 17.1667 6.34505 18.4641 8.10951 18.9633C9.60521 19.3874 11.0942 19.8366 12.5833 20.2824C13.8336 20.6564 14.7083 21.4295 14.8552 22.7653C14.9754 23.864 14.9754 24.981 14.9604 26.0897C14.9453 27.135 15.3142 27.9381 16.2257 28.4524C17.1288 28.9617 17.466 29.7631 17.4793 30.7433C17.4927 31.6883 17.471 32.6351 17.4894 33.5801C17.5094 34.6387 18.1454 35.2832 19.1971 35.3484C20.5609 35.4335 22.1901 34.2079 22.4455 32.6133C22.7727 30.5763 23.8811 29.2739 25.6089 28.2988C27.5653 27.1951 27.8324 25.3717 27.3583 23.1911C26.9877 21.4846 25.1298 20.2423 23.2652 20.224C22.7093 20.219 22.1534 20.224 21.5959 20.224H21.5975ZM36.0671 22.5031C36.1406 22.2343 36.1923 22.1058 36.2107 21.9738C36.5512 19.354 36.1639 16.811 35.1974 14.3849C34.1791 11.8336 34.6632 12.1959 32.1392 13.1627C30.8856 13.6419 30.3564 14.8875 30.7387 16.1782C31.141 17.534 31.5149 18.9082 32.0558 20.2089C32.2995 20.7967 32.832 21.3961 33.3912 21.6883C34.1791 22.0991 35.1139 22.2293 36.0688 22.5048L36.0671 22.5031Z" fill="#C92E17"/>
</g>
<defs>
<clipPath id="clip0_517_1100">
<rect width="40" height="40" fill="white" transform="translate(0 0.259033)"/>
</clipPath>
</defs>
</svg>
