<svg width="30" height="24" viewBox="0 0 30 24" fill="none" xmlns="http://www.w3.org/2000/svg">
<g clip-path="url(#clip0_533_1182)">
<path d="M0.0536431 7.57153C1.2819 8.50465 2.42749 9.37197 3.56986 10.2437C6.67701 12.6132 9.77449 14.9959 12.8913 17.3511C14.1894 18.3325 15.904 18.2777 17.2868 17.2327C19.5995 15.486 21.896 13.7152 24.199 11.9553C26.0017 10.5781 27.8033 9.19982 29.607 7.82373C29.6918 7.75903 29.7852 7.7064 29.9377 7.60772C29.9624 7.78316 29.9946 7.91254 29.9957 8.04193C29.9978 11.9871 30.0043 15.9334 29.9924 19.8786C29.986 22.0737 28.3208 23.7546 26.1649 23.7557C18.7245 23.7601 11.284 23.7601 3.84364 23.7557C1.72961 23.7546 0.0289491 22.1099 0.0149916 19.9926C-0.010776 15.9739 0.00425509 11.9553 0.00532874 7.93666C0.00532874 7.85114 0.0278754 7.76452 0.0547168 7.57153H0.0536431Z" fill="#C92E17"/>
<path d="M15.0202 0.761196C18.9562 0.761196 22.8922 0.75681 26.8272 0.764486C27.9094 0.766679 28.8789 1.04957 29.5199 2.04409C30.3326 3.30396 30.0889 4.96295 28.9111 5.87194C25.4035 8.58137 21.8841 11.2733 18.3689 13.9739C17.6979 14.4893 17.0279 15.0079 16.359 15.5265C15.4475 16.2327 14.5639 16.2371 13.6567 15.5397C9.50163 12.3434 5.34552 9.14826 1.18941 5.95418C0.143676 5.14935 -0.224586 3.96734 0.179107 2.70089C0.565622 1.48598 1.59848 0.769968 3.0522 0.765582C6.34402 0.753521 9.63584 0.761196 12.9277 0.761196C13.6255 0.761196 14.3234 0.761196 15.0213 0.761196H15.0202Z" fill="#C92E17"/>
</g>
<defs>
<clipPath id="clip0_533_1182">
<rect width="30" height="23" fill="white" transform="translate(0 0.759033)"/>
</clipPath>
</defs>
</svg>
