<svg width="40" height="44" viewBox="0 0 40 44" fill="none" xmlns="http://www.w3.org/2000/svg">
<g clip-path="url(#clip0_517_1116)">
<path d="M24.1387 20.5996C24.3154 20.3805 24.4908 20.156 24.6743 19.9383C25.7119 18.7137 26.2663 17.3009 26.2248 15.6892C26.21 15.091 26.4336 14.7402 26.9826 14.6031C27.5624 14.4579 28.1502 14.2778 28.7407 14.2496C29.8761 14.1944 31.0169 14.2038 32.1523 14.2469C34.1474 14.3221 36.121 16.071 36.7222 18.2109C37.7251 21.7852 38.744 25.3541 39.7496 28.9283C39.858 29.3141 39.9598 29.7107 39.9919 30.1086C40.1164 31.6853 38.989 32.9354 37.4091 32.9986C37.0302 33.0134 36.6472 33.0309 36.2723 32.9946C35.7514 32.9449 35.5747 33.1142 35.5854 33.6667C35.6202 35.5257 35.6015 37.3861 35.5988 39.2452C35.5934 42.1204 33.9827 43.7295 31.1039 43.7201C30.168 43.7174 29.2321 43.6918 28.2988 43.6461C28.0176 43.6327 27.7298 43.5386 27.4633 43.4351C26.2904 42.9807 26.2154 42.8275 26.2328 41.5868C26.2556 40.1082 26.2127 38.6282 26.2569 37.1509C26.2676 36.7893 26.4122 36.3457 26.6546 36.0903C28.6978 33.9369 29.1156 31.3143 28.9603 28.4928C28.8331 26.1781 27.952 24.19 26.3962 22.5205C25.7494 21.8255 24.9461 21.2771 24.14 20.601L24.1387 20.5996Z" fill="#C92E17"/>
<path d="M14.9079 20.562C14.0015 21.4008 13.0829 22.1199 12.3238 22.9802C10.3783 25.1861 9.9605 27.8557 10.152 30.6973C10.2979 32.8709 11.1174 34.7138 12.6264 36.2691C12.775 36.4223 12.846 36.7086 12.85 36.9345C12.8861 38.725 12.9062 40.5155 12.9049 42.3059C12.9049 42.4982 12.7911 42.7899 12.6424 42.8651C12.0399 43.1756 11.4226 43.5843 10.7773 43.6542C9.58693 43.7832 8.3658 43.7913 7.17279 43.6824C4.93941 43.4808 3.51744 41.8153 3.50405 39.4871C3.4853 36.5541 3.49735 33.6196 3.50137 30.6866C3.50137 30.2927 3.48129 29.9782 3.03943 29.7604C0.901117 28.7025 -0.135236 26.955 0.0147274 24.557C0.115149 22.9506 0.17808 21.3295 0.453905 19.7501C0.997522 16.6342 3.08897 14.5896 6.22213 14.3248C8.24396 14.1528 10.3019 14.3974 12.3438 14.4619C12.7321 14.474 12.8928 14.7039 12.8674 15.0857C12.7268 17.1732 13.419 18.9489 14.8597 20.4464C14.9026 20.4907 14.912 20.566 14.9106 20.562H14.9079Z" fill="#C92E17"/>
<path d="M19.5301 43.7201C19.0401 43.7201 18.5487 43.7362 18.0586 43.7174C16.6393 43.6623 15.619 42.6581 15.5963 41.2346C15.5668 39.3769 15.5762 37.5179 15.5923 35.6588C15.5963 35.1924 15.457 34.8845 15.0687 34.5915C13.62 33.496 12.9371 32.016 12.9237 30.1865C12.913 28.6286 12.9478 27.1029 13.7298 25.6874C14.6001 24.1134 15.9109 23.1025 17.5967 22.585C20.6656 21.6414 23.946 22.956 25.3894 25.8017C25.8205 26.6513 26.0348 27.6621 26.1325 28.6205C26.2329 29.6085 26.162 30.6395 25.9959 31.6221C25.7831 32.8844 25.0265 33.8737 23.9969 34.6157C23.6206 34.8872 23.5028 35.1924 23.5068 35.6319C23.5229 37.3781 23.5175 39.1255 23.5122 40.8717C23.5068 42.7495 22.5388 43.716 20.6656 43.7214C20.2866 43.7214 19.9077 43.7214 19.5288 43.7214V43.7187L19.5301 43.7201Z" fill="#C92E17"/>
<path d="M8.83024 11.4845C5.99165 11.4804 3.48513 8.94525 3.50253 6.09956C3.52128 3.23773 6.04253 0.732119 8.87577 0.759003C11.6943 0.785888 14.158 3.2794 14.1673 6.11031C14.1767 8.96273 11.6675 11.4885 8.83024 11.4831V11.4845Z" fill="#C92E17"/>
<path d="M35.5933 6.11708C35.5973 8.97218 33.0881 11.4939 30.2509 11.4845C27.4123 11.4765 24.9071 8.93723 24.9298 6.09288C24.9526 3.25659 27.4243 0.77518 30.2415 0.759049C33.0761 0.742919 35.5906 3.25928 35.5946 6.11573L35.5933 6.11708Z" fill="#C92E17"/>
<path d="M23.5147 15.583C23.5013 17.8184 21.7393 19.5404 19.4858 19.5188C17.2966 19.4973 15.5693 17.727 15.5841 15.5212C15.6001 13.275 17.3649 11.5221 19.5835 11.549C21.8196 11.5759 23.5281 13.3301 23.5147 15.583Z" fill="#C92E17"/>
</g>
<defs>
<clipPath id="clip0_517_1116">
<rect width="40" height="43" fill="white" transform="translate(0 0.759033)"/>
</clipPath>
</defs>
</svg>
