<svg width="117" height="116" viewBox="0 0 117 116" fill="none" xmlns="http://www.w3.org/2000/svg">
<g filter="url(#filter0_d_195_1668)">
<rect x="28.3335" y="20" width="60" height="60" rx="30" fill="#214594"/>
<g clip-path="url(#clip0_195_1668)">
<path d="M63.7267 44.55C59.3127 41.732 55.5445 41.8431 52.7778 44.8312C50.5369 47.2508 49.6566 51.6615 52.9368 55.3568C52.1904 56.0998 51.4568 56.8608 50.6816 57.5777C50.5077 57.7385 50.1706 57.843 49.9382 57.8025C48.0626 57.4748 46.1926 57.1158 44.3252 56.7456C43.3187 56.5464 43.0632 55.9836 43.6291 55.135C44.6525 53.5987 45.7032 52.0794 46.778 50.5784C47.0853 50.1493 47.0822 49.8477 46.7759 49.4206C45.736 47.9713 44.731 46.497 43.7286 45.0217C43.0493 44.0226 43.2669 43.469 44.4278 43.2422C46.0818 42.919 47.7368 42.5949 49.4001 42.3235C50.1291 42.2047 50.5354 41.9706 50.6436 41.1354C50.8524 39.5259 51.2187 37.9369 51.5152 36.3386C51.7836 34.8904 52.2699 34.6692 53.4581 35.4793C54.855 36.4318 56.2602 37.3731 57.6279 38.3655C58.1358 38.7342 58.4975 38.7721 59.029 38.3839C60.47 37.3326 61.9547 36.3407 63.4369 35.3467C64.3582 34.7286 64.8702 34.9268 65.0924 36.015C65.4679 37.8524 65.806 39.698 66.1292 41.5451C66.1718 41.7883 66.1205 42.1427 65.9655 42.3096C65.2458 43.0844 64.4747 43.8111 63.7272 44.5495L63.7267 44.55Z" fill="white"/>
<path d="M54.264 53.7667C52.2053 51.7757 52.2289 48.2084 54.36 46.0551C56.5218 43.87 60.0981 43.8377 62.1235 45.925C59.5169 48.5259 56.9107 51.1258 54.264 53.7667Z" fill="white"/>
<path d="M73.3336 44.3319C73.3485 45.4134 72.6046 46.199 71.5483 46.2179C70.5027 46.2364 69.6983 45.4544 69.6788 44.4005C69.6593 43.3471 70.4355 42.5344 71.4795 42.515C72.5389 42.495 73.3192 43.2596 73.3336 44.3319Z" fill="white"/>
<path d="M68.6295 49.0826C68.6203 50.1585 67.8487 50.9256 66.7888 50.9133C65.7427 50.901 64.9629 50.096 64.9747 49.0411C64.9865 47.9857 65.7838 47.1991 66.8309 47.2104C67.8887 47.2216 68.6387 48.0021 68.6295 49.0831V49.0826Z" fill="white"/>
<path d="M63.9257 53.7319C63.937 54.8134 63.189 55.5954 62.1317 55.6092C61.0851 55.6231 60.2858 54.838 60.2709 53.7831C60.2566 52.7282 61.0343 51.9211 62.0804 51.9063C63.1403 51.8914 63.9149 52.6575 63.9257 53.7324V53.7319Z" fill="white"/>
<path d="M73.3335 53.7529C73.3355 54.8324 72.5778 55.6072 71.5184 55.6092C70.4724 55.6113 69.6813 54.817 69.6787 53.7621C69.6762 52.7067 70.4626 51.9093 71.5092 51.9057C72.5691 51.9022 73.3314 52.6744 73.3335 53.7529Z" fill="white"/>
<path d="M59.2218 58.5292C59.189 59.5943 58.3841 60.3476 57.3257 60.3041C56.2832 60.2611 55.526 59.431 55.5681 58.3771C55.6101 57.3258 56.4341 56.5602 57.4786 56.6022C58.5328 56.6442 59.2557 57.443 59.2218 58.5292Z" fill="white"/>
<path d="M68.6295 58.4775C68.6188 59.5523 67.8451 60.3189 66.7852 60.3041C65.7392 60.2898 64.9614 59.4832 64.9753 58.4278C64.9891 57.3724 65.7879 56.5873 66.835 56.6006C67.8928 56.6139 68.6408 57.3959 68.63 58.4769L68.6295 58.4775Z" fill="white"/>
<path d="M54.518 63.1713C54.5082 64.2467 53.7351 65.0133 52.6752 64.9995C51.6291 64.9862 50.8504 64.1801 50.8632 63.1252C50.8765 62.0698 51.6743 61.2842 52.7214 61.2965C53.7792 61.3088 54.5282 62.0903 54.518 63.1713Z" fill="white"/>
<path d="M63.9257 63.1237C63.9365 64.2047 63.188 64.9867 62.1301 65C61.0836 65.0128 60.2848 64.2277 60.2709 63.1723C60.2571 62.1169 61.0353 61.3109 62.0814 61.2965C63.1413 61.2822 63.9149 62.0488 63.9257 63.1237Z" fill="white"/>
<path d="M73.3335 63.1165C73.3474 64.1975 72.602 64.9826 71.5457 65C70.4996 65.0169 69.6967 64.2344 69.6788 63.18C69.6608 62.1251 70.4365 61.315 71.482 61.297C72.5419 61.2786 73.3197 62.0437 73.3335 63.1165Z" fill="white"/>
</g>
</g>
<defs>
<filter id="filter0_d_195_1668" x="0.333496" y="0" width="116" height="116" filterUnits="userSpaceOnUse" color-interpolation-filters="sRGB">
<feFlood flood-opacity="0" result="BackgroundImageFix"/>
<feColorMatrix in="SourceAlpha" type="matrix" values="0 0 0 0 0 0 0 0 0 0 0 0 0 0 0 0 0 0 127 0" result="hardAlpha"/>
<feOffset dy="8"/>
<feGaussianBlur stdDeviation="14"/>
<feComposite in2="hardAlpha" operator="out"/>
<feColorMatrix type="matrix" values="0 0 0 0 0.129412 0 0 0 0 0.270588 0 0 0 0 0.580392 0 0 0 0.4 0"/>
<feBlend mode="normal" in2="BackgroundImageFix" result="effect1_dropShadow_195_1668"/>
<feBlend mode="normal" in="SourceGraphic" in2="effect1_dropShadow_195_1668" result="shape"/>
</filter>
<clipPath id="clip0_195_1668">
<rect width="30" height="30" fill="white" transform="translate(43.3335 35)"/>
</clipPath>
</defs>
</svg>
