<svg width="116" height="116" viewBox="0 0 116 116" fill="none" xmlns="http://www.w3.org/2000/svg">
<g filter="url(#filter0_d_209_178)">
<rect x="28" y="20" width="60" height="60" rx="30" fill="#F5B71F"/>
<g clip-path="url(#clip0_209_178)">
<path d="M70.5103 48.0374C70.5254 48.2511 70.5468 48.4065 70.5468 48.5619C70.5493 50.9694 70.5518 53.3758 70.5468 55.7833C70.5443 56.9585 69.8835 57.7622 68.6852 58.0512C65.4767 58.8246 62.2633 59.5773 59.0611 60.3725C58.2341 60.5777 57.455 60.5146 56.6519 60.3179C53.5669 59.5603 50.4793 58.8149 47.3929 58.0621C46.0612 57.7367 45.4318 56.9561 45.4306 55.6206C45.4268 53.3151 45.4293 51.0083 45.4306 48.7028C45.4306 48.5085 45.4482 48.3142 45.4621 48.0314C46.0209 48.1649 46.5043 48.2693 46.9801 48.3968C48.493 48.8035 49.9997 49.2272 51.5139 49.6291C53.188 50.0735 54.4782 49.5708 55.3731 48.1418C56.1208 46.9484 56.8659 45.7525 57.6149 44.5591C57.7181 44.394 57.8351 44.2361 58.0013 43.9945C58.2832 44.4268 58.5186 44.7752 58.7427 45.1309C59.3733 46.1325 59.9951 47.1402 60.6282 48.1406C61.5483 49.5939 62.8435 50.0856 64.5503 49.6279C66.3251 49.152 68.0961 48.6651 69.8696 48.1856C70.066 48.1321 70.2661 48.0933 70.509 48.0362L70.5103 48.0374Z" fill="white"/>
<path d="M58.1434 40.9484C59.8603 40.7347 61.518 40.5283 63.1757 40.3244C65.2727 40.0658 67.371 39.8145 69.4668 39.5522C70.446 39.4296 70.5933 39.4927 71.0401 40.3499C71.6053 41.4328 72.1742 42.5134 72.7243 43.6024C73.331 44.8019 72.9244 45.6906 71.5902 46.0609C69.0766 46.7566 66.5591 47.4389 64.0417 48.1176C63.1934 48.3458 62.5111 48.1358 62.0731 47.4425C60.7666 45.3725 59.4902 43.2843 58.2051 41.2009C58.1762 41.1536 58.1762 41.0892 58.1434 40.9484Z" fill="white"/>
<path d="M57.9408 40.9605C56.7098 42.9541 55.5644 44.8104 54.4177 46.6679C54.278 46.8938 54.1445 47.1232 53.9985 47.3442C53.5001 48.1018 52.8506 48.3555 51.9569 48.1151C49.4357 47.4365 46.9158 46.7541 44.4009 46.0573C43.0679 45.687 42.6677 44.78 43.2806 43.5878C43.8584 42.466 44.4626 41.3551 45.0114 40.2199C45.2845 39.6566 45.6734 39.4356 46.3041 39.5158C49.3778 39.9055 52.4528 40.2819 55.5279 40.6631C56.2894 40.7578 57.0521 40.8501 57.9408 40.9593V40.9605Z" fill="white"/>
</g>
</g>
<defs>
<filter id="filter0_d_209_178" x="0" y="0" width="116" height="116" filterUnits="userSpaceOnUse" color-interpolation-filters="sRGB">
<feFlood flood-opacity="0" result="BackgroundImageFix"/>
<feColorMatrix in="SourceAlpha" type="matrix" values="0 0 0 0 0 0 0 0 0 0 0 0 0 0 0 0 0 0 127 0" result="hardAlpha"/>
<feOffset dy="8"/>
<feGaussianBlur stdDeviation="14"/>
<feComposite in2="hardAlpha" operator="out"/>
<feColorMatrix type="matrix" values="0 0 0 0 0.960784 0 0 0 0 0.717647 0 0 0 0 0.121569 0 0 0 0.4 0"/>
<feBlend mode="normal" in2="BackgroundImageFix" result="effect1_dropShadow_209_178"/>
<feBlend mode="normal" in="SourceGraphic" in2="effect1_dropShadow_209_178" result="shape"/>
</filter>
<clipPath id="clip0_209_178">
<rect width="30" height="21" fill="white" transform="translate(43 39.5)"/>
</clipPath>
</defs>
</svg>
