<svg width="117" height="116" viewBox="0 0 117 116" fill="none" xmlns="http://www.w3.org/2000/svg">
<g filter="url(#filter0_d_209_194)">
<rect x="28.3335" y="20" width="60" height="60" rx="30" fill="#37251C"/>
<g clip-path="url(#clip0_209_194)">
<path d="M56.1548 46.2654C59.7068 46.2654 63.2596 46.248 66.8115 46.2698C70.3426 46.2915 73.2214 49.1156 73.3299 52.6192C73.4429 56.2799 70.5025 59.3343 66.8237 59.3134C66.0836 59.3091 65.7865 59.488 65.697 60.2621C65.3947 62.8786 63.1362 64.9322 60.4807 64.9644C56.5535 65.0113 52.6255 65.0122 48.6983 64.9644C45.7891 64.9288 43.396 62.492 43.3595 59.5323C43.3126 55.7291 43.3395 51.9242 43.3534 48.1201C43.3577 46.9725 44.1352 46.2689 45.347 46.2672C48.9493 46.2619 52.5516 46.2654 56.154 46.2645L56.1548 46.2654ZM65.8299 52.7816C65.8299 53.5826 65.8021 54.3852 65.8508 55.1827C65.8621 55.3651 66.1314 55.6814 66.2851 55.6831C67.4291 55.6953 68.482 55.4268 69.1465 54.3809C69.7971 53.3558 69.8049 52.3021 69.1586 51.27C68.5002 50.218 67.4682 49.914 66.3112 49.9809C66.1409 49.9904 65.8673 50.3292 65.8517 50.5316C65.7961 51.2787 65.8299 52.0319 65.8308 52.7825L65.8299 52.7816Z" fill="white"/>
<path d="M47.1087 36.5116C47.1052 35.7132 47.6429 35.0817 48.3839 35.0061C49.071 34.9357 49.7285 35.443 49.7998 36.2509C49.8814 37.1805 50.3618 37.8146 51.0063 38.4114C51.6092 38.97 52.298 39.506 52.6941 40.1984C53.1502 40.9958 53.4169 41.9366 53.5967 42.8479C53.74 43.5724 53.0876 44.2196 52.3736 44.2926C51.6578 44.3656 50.9916 43.9425 50.9368 43.1832C50.8517 42.0044 50.1568 41.286 49.3368 40.5945C48.0711 39.5268 47.1408 38.2629 47.1095 36.5116H47.1087Z" fill="white"/>
<path d="M60.1456 42.722C60.1508 43.6984 59.7304 44.2361 58.9165 44.2961C58.0982 44.3569 57.5327 43.8322 57.458 42.8583C57.3911 41.9992 56.8438 41.4754 56.2879 40.9237C55.6512 40.2922 54.9041 39.7049 54.4802 38.9448C54.0494 38.1734 53.8635 37.2274 53.7401 36.3343C53.642 35.6203 54.1927 35.1234 54.9093 35.0226C55.5382 34.934 56.2766 35.3223 56.3105 35.9851C56.3834 37.3898 57.2999 38.1473 58.2224 38.9709C59.5679 40.1723 60.1387 41.3494 60.1456 42.7211V42.722Z" fill="white"/>
</g>
</g>
<defs>
<filter id="filter0_d_209_194" x="0.333496" y="0" width="116" height="116" filterUnits="userSpaceOnUse" color-interpolation-filters="sRGB">
<feFlood flood-opacity="0" result="BackgroundImageFix"/>
<feColorMatrix in="SourceAlpha" type="matrix" values="0 0 0 0 0 0 0 0 0 0 0 0 0 0 0 0 0 0 127 0" result="hardAlpha"/>
<feOffset dy="8"/>
<feGaussianBlur stdDeviation="14"/>
<feComposite in2="hardAlpha" operator="out"/>
<feColorMatrix type="matrix" values="0 0 0 0 0.215686 0 0 0 0 0.145098 0 0 0 0 0.109804 0 0 0 0.4 0"/>
<feBlend mode="normal" in2="BackgroundImageFix" result="effect1_dropShadow_209_194"/>
<feBlend mode="normal" in="SourceGraphic" in2="effect1_dropShadow_209_194" result="shape"/>
</filter>
<clipPath id="clip0_209_194">
<rect width="30" height="30" fill="white" transform="translate(43.3335 35)"/>
</clipPath>
</defs>
</svg>
