<svg width="64" height="81" viewBox="0 0 64 81" fill="none" xmlns="http://www.w3.org/2000/svg">
<path d="M0 40.1917V21.3892C0 9.68453 9.48871 0.1875 21.2017 0.1875H63.9717V58.9858C63.9717 70.6905 54.483 80.1875 42.77 80.1875H0V40.1917Z" fill="white"/>
<path d="M25.2599 63.7418C39.4472 67.0407 53.7594 50.7208 52.0932 33.0264C51.7683 30.1189 51.0519 23.6209 46.22 20.247C45.3953 19.6722 43.3126 18.2643 40.6384 18.5059C36.6897 18.8641 34.4237 22.5546 33.9405 23.346C31.558 26.9532 32.1328 37.9831 33.3241 45.1809C33.5573 38.1331 33.0658 33.2929 34.4237 27.0032C34.7819 25.3287 36.2981 22.288 39.4055 21.1051C42.038 19.9971 44.6955 21.455 45.8951 22.9711C48.4777 25.9369 49.7189 30.3605 49.7023 33.2763C50.8769 42.4484 46.5116 54.2864 38.1642 59.918C33.8489 62.7754 29.7668 64.2166 25.2516 63.7501L25.2599 63.7418Z" fill="#C92E17"/>
<path d="M38.7123 16.6344C24.5251 13.3354 10.2129 29.6553 11.879 47.3498C12.2039 50.2572 12.9204 56.7552 17.7522 60.1292C18.5769 60.704 20.6596 62.1119 23.3338 61.8703C27.2825 61.5121 29.5485 57.8215 30.0317 57.0301C32.4143 53.4229 31.8395 42.393 30.6482 35.1953C30.4149 42.2431 30.9064 47.0832 29.5485 53.3729C29.1903 55.0474 27.6741 58.0881 24.5667 59.2711C21.9342 60.3791 19.2767 58.9212 18.0771 57.405C15.4946 54.4393 14.2533 50.0156 14.2699 47.0999C13.0953 37.9277 17.4606 26.0898 25.808 20.4582C30.1233 17.6007 34.2054 16.1595 38.7206 16.626L38.7123 16.6344Z" fill="#C92E17"/>
</svg>
