<svg width="17" height="16" viewBox="0 0 17 16" fill="none" xmlns="http://www.w3.org/2000/svg">
<path d="M0.5 7.99918C0.500411 3.5971 4.0941 0.0016442 8.49506 5.65245e-07C12.9331 -0.00164307 16.5074 3.58149 16.5 8.02589C16.493 12.4362 12.9125 16.0021 8.49301 16C4.09286 15.9984 0.499589 12.4013 0.5 7.99918ZM7.94577 10.495C7.67256 10.495 7.42486 10.4757 7.18169 10.4996C6.76899 10.5398 6.45258 10.8862 6.48303 11.2725C6.51553 11.6842 6.74389 11.9908 7.16564 12.0051C8.06468 12.0364 8.96701 12.0384 9.86563 12.0023C10.2536 11.9866 10.4939 11.7076 10.5153 11.3012C10.5367 10.8994 10.3351 10.6368 9.95492 10.5185C9.83189 10.4803 9.69817 10.4766 9.52495 10.4503C9.52495 9.57502 9.53605 8.71087 9.52124 7.84714C9.51096 7.25543 9.24022 6.9982 8.65594 6.98711C8.18935 6.97848 7.72152 6.97232 7.25534 6.9904C6.79697 7.00806 6.48221 7.32898 6.47727 7.74277C6.47274 8.15615 6.78668 8.47994 7.24052 8.51035C7.46765 8.52555 7.69642 8.51282 7.94535 8.51282V10.495H7.94577ZM9.52289 5.01392C9.53194 4.42426 9.12994 3.99733 8.54938 3.98007C7.94124 3.96199 7.48781 4.38276 7.47588 4.97571C7.46395 5.56783 7.9075 6.01079 8.51111 6.00955C9.09991 6.00832 9.51384 5.60111 9.52289 5.01392Z" fill="#C92E17"/>
</svg>
