<svg width="22" height="31" viewBox="0 0 22 31" fill="none" xmlns="http://www.w3.org/2000/svg">
<g clip-path="url(#clip0_533_1179)">
<path d="M0 11.542C0.155435 5.82804 3.80033 1.52003 8.68779 0.521312C12.4734 -0.251704 15.8332 0.67742 18.6651 3.36981C20.2746 4.9008 21.2513 6.82676 21.7544 9.02637C22.3072 11.4442 21.8795 13.72 20.9469 15.9403C19.7135 18.8753 18.0525 21.562 16.2664 24.166C15.0615 25.9218 13.7905 27.6305 12.5258 29.342C11.6217 30.5665 10.4261 30.5589 9.50911 29.3608C6.6745 25.6566 3.99992 21.8394 1.86522 17.6622C0.845234 15.6685 0.0597826 13.5817 0 11.542ZM11.0138 7.73519C9.01982 7.73237 7.31555 9.46272 7.30727 11.4987C7.299 13.5281 9.0051 15.2782 10.9945 15.282C13.0105 15.2848 14.7332 13.5366 14.7258 11.4949C14.7185 9.47213 13.0069 7.73801 11.0138 7.73519Z" fill="#C92E17"/>
</g>
<defs>
<clipPath id="clip0_533_1179">
<rect width="22" height="30" fill="white" transform="translate(0 0.259033)"/>
</clipPath>
</defs>
</svg>
