<svg width="96" height="101" viewBox="0 0 96 101" fill="none" xmlns="http://www.w3.org/2000/svg">
<g clip-path="url(#clip0_520_1486)">
<path d="M48.1106 23.1597C55.6914 23.5874 62.895 25.5415 69.6965 28.9816C79.2037 33.7922 87.2489 40.4788 94.4089 48.308C95.4906 49.488 96.0517 50.5337 94.73 51.9884C86.7876 60.7292 77.7948 68.0589 66.9566 72.9474C53.179 79.1627 39.6414 78.401 26.294 71.5864C17.0424 66.8633 9.12807 60.4232 2.14575 52.7907C-0.0549251 50.3839 -0.0424567 50.2965 2.15822 47.8866C10.8082 38.4122 20.7268 30.7111 32.8773 26.2189C37.768 24.4115 42.8551 23.4406 48.1137 23.1597H48.1106ZM28.4416 69.6728C28.6474 69.7883 28.8531 70.013 29.0588 69.704C29.0775 69.6759 28.8375 69.4792 28.716 69.3606C28.6131 69.2014 28.532 69.0203 28.4074 68.8799C18.869 58.0913 18.3983 44.4215 27.1543 32.9462C27.4317 32.5809 27.9959 32.2875 27.6811 31.5726C26.4841 31.4852 25.6705 32.3562 24.7635 32.8713C17.1889 37.1604 10.6025 42.6983 4.64255 49.0072C4.05342 49.6316 3.3396 50.1217 4.33708 51.1924C11.3381 58.7188 19.1277 65.1838 28.4448 69.6697L28.4416 69.6728ZM48.1012 26.1159C35.8728 25.2294 23.5104 36.0335 23.6133 50.4214C23.7161 64.444 35.6546 74.9172 48.441 74.5863C61.6731 74.246 72.2058 63.6011 72.3461 50.0905C72.477 37.6131 61.3427 25.3324 48.1012 26.1159ZM67.3088 31.3073C72.4957 36.7421 75.0673 43.2259 74.9551 50.7086C74.846 58.1756 71.9907 64.5033 66.6355 69.7383C67.1561 69.8351 67.5582 69.7695 67.9977 69.551C77.1963 64.9934 84.9735 58.6002 91.9215 51.1144C92.6602 50.3215 92.2675 49.9375 91.7532 49.3881C85.1823 42.3799 77.9288 36.2333 69.3599 31.7724C68.7427 31.4509 68.1504 30.9701 67.3057 31.3073H67.3088Z" fill="#C92E17"/>
<path d="M49.3608 95.7888C49.3608 96.8283 49.367 97.8678 49.3608 98.9073C49.3545 99.7939 48.7779 100.256 48.0111 100.259C47.2069 100.259 46.7549 99.7252 46.7642 98.848C46.7829 96.7034 46.7829 94.5588 46.758 92.4142C46.7486 91.5495 47.1133 91.0032 47.9737 90.9907C48.9088 90.9751 49.3764 91.5214 49.3639 92.4767C49.3514 93.5817 49.3639 94.6868 49.3639 95.7919L49.3608 95.7888Z" fill="#C92E17"/>
<path d="M17.3884 21.2929C17.4352 21.9891 17.1796 22.3793 16.765 22.5884C16.2195 22.8663 15.6272 22.885 15.1503 22.4136C13.5855 20.8684 12.027 19.3169 10.4871 17.7467C9.97281 17.2191 9.9541 16.5636 10.378 15.9767C10.8331 15.3461 11.6093 15.2431 12.0924 15.6926C13.8411 17.319 15.4932 19.0516 17.1608 20.7591C17.3229 20.9277 17.3572 21.2211 17.3853 21.2929H17.3884Z" fill="#C92E17"/>
<path d="M86.0585 16.9257C85.9494 17.1255 85.8247 17.5126 85.5722 17.7748C84.129 19.2638 82.6515 20.7185 81.1926 22.1889C80.5412 22.8444 79.7744 22.9568 79.1416 22.32C78.4964 21.6707 78.6616 20.9058 79.3068 20.2628C80.775 18.7987 82.2431 17.3315 83.705 15.8643C84.1664 15.4023 84.7087 15.2712 85.301 15.5241C85.8247 15.7488 86.0772 16.1796 86.0553 16.9288L86.0585 16.9257Z" fill="#C92E17"/>
<path d="M46.7609 4.8198C46.7609 3.71785 46.736 2.61277 46.7671 1.51394C46.789 0.774102 47.1505 0.280876 47.9516 0.259024C48.7839 0.237172 49.345 0.583679 49.3512 1.48585C49.3668 3.75531 49.3637 6.02477 49.3481 8.29424C49.3419 9.10275 48.84 9.4118 48.0857 9.43053C47.3095 9.44926 46.8108 9.09651 46.7796 8.31921C46.7297 7.15482 46.7671 5.98419 46.764 4.81668L46.7609 4.8198Z" fill="#C92E17"/>
<path d="M11.488 85.0096C10.3253 84.866 9.64888 84.0263 10.2598 83.1553C11.7062 81.1044 13.5795 79.3937 15.5309 77.8047C16.0795 77.3583 16.6468 77.7298 17.0738 78.17C17.4759 78.5883 17.6037 79.1845 17.2234 79.5841C15.5277 81.3572 13.7697 83.0741 12.021 84.7973C11.8963 84.9191 11.6688 84.9378 11.488 85.0065V85.0096Z" fill="#C92E17"/>
<path d="M80.248 77.7174C80.4444 77.8329 80.7655 77.9421 80.9868 78.1575C82.5578 79.7027 84.1226 81.2573 85.6624 82.8307C86.264 83.4456 86.2142 84.1043 85.6094 84.7099C85.0484 85.2718 84.4187 85.2656 83.8826 84.7474C82.2492 83.1741 80.6439 81.5758 79.0573 79.9525C78.596 79.4811 78.6832 78.8537 78.9762 78.3167C79.2069 77.8922 79.6682 77.7673 80.248 77.7142V77.7174Z" fill="#C92E17"/>
<path d="M48.1014 26.1159C61.3429 25.3324 72.4772 37.6131 72.3463 50.0905C72.206 63.6042 61.6733 74.246 48.4412 74.5863C35.6548 74.9172 23.7163 64.444 23.6135 50.4214C23.5075 36.0335 35.873 25.2263 48.1014 26.1159ZM47.7523 60.9414C53.8151 61.0382 58.631 56.3994 58.6934 50.3933C58.7557 44.4964 54.0613 39.6078 48.2355 39.5017C42.1976 39.3925 37.3069 44.0469 37.1947 50.0062C37.0825 56.0435 41.7176 60.8447 47.7523 60.9414Z" fill="#F4E6DB"/>
<path d="M47.752 60.9414C41.7173 60.8447 37.0822 56.0404 37.1944 50.0062C37.3066 44.0469 42.1973 39.3924 48.2352 39.5017C54.0641 39.6078 58.7585 44.4964 58.6931 50.3933C58.6276 56.3994 53.8148 61.0382 47.752 60.9414ZM55.9936 50.1685C55.9594 45.7014 52.3622 42.1208 47.9235 42.1333C43.3974 42.1489 39.8159 45.8294 39.8876 50.3964C39.9561 54.7418 43.7902 58.5065 48.0481 58.4035C52.4121 58.3005 56.0279 54.5545 55.9936 50.1685Z" fill="#C92E17"/>
</g>
<defs>
<clipPath id="clip0_520_1486">
<rect width="95" height="100" fill="white" transform="translate(0.5 0.259033)"/>
</clipPath>
</defs>
</svg>
