<svg width="30" height="31" viewBox="0 0 30 31" fill="none" xmlns="http://www.w3.org/2000/svg">
<g clip-path="url(#clip0_533_1176)">
<path d="M25.1637 30.259C21.4372 30.0831 17.8738 29.2526 14.5573 27.5368C7.96185 24.1258 3.45181 18.897 1.15708 11.8228C0.353177 9.34842 -0.0053072 6.78073 5.93316e-05 4.17227C0.00327925 2.92651 0.648337 2.04236 1.83005 1.70866C3.53017 1.22903 5.2335 0.763347 6.9465 0.330928C8.01766 0.0605321 9.09848 0.57128 9.52995 1.5638C10.3628 3.47911 11.1721 5.40514 11.9503 7.34298C12.3495 8.33765 12.1316 9.25399 11.3159 9.96647C10.4959 10.6832 9.64909 11.37 8.79259 12.0427C8.46416 12.3013 8.41693 12.5277 8.60798 12.9C10.5904 16.7586 13.5044 19.676 17.3694 21.6504C17.744 21.8414 17.9704 21.7931 18.2259 21.4647C18.8387 20.675 19.4795 19.9057 20.117 19.1353C20.9424 18.1384 21.888 17.8884 23.0815 18.3766C24.8986 19.1192 26.7125 19.8692 28.5168 20.6428C29.692 21.1471 30.2276 22.2448 29.9067 23.4906C29.4935 25.0979 29.0577 26.6988 28.5994 28.2944C28.2066 29.6625 27.3801 30.2569 25.9644 30.259C25.6972 30.259 25.4288 30.259 25.1616 30.259H25.1637Z" fill="#C92E17"/>
</g>
<defs>
<clipPath id="clip0_533_1176">
<rect width="30" height="30" fill="white" transform="translate(0 0.259033)"/>
</clipPath>
</defs>
</svg>
