<svg width="30" height="31" viewBox="0 0 30 31" fill="none" xmlns="http://www.w3.org/2000/svg">
<g clip-path="url(#clip0_571_248)">
<path d="M14.9479 30.259C6.64798 30.2533 -0.00703202 23.524 5.57648e-06 15.1458C0.00704317 6.98442 6.82967 0.236631 15.0521 0.259028C23.3028 0.281424 30.009 7.04073 30 15.3243C29.9904 23.5867 23.2593 30.2654 14.9479 30.259ZM14.9882 2.12179C7.75864 2.12243 1.81251 7.99227 1.80803 15.133C1.80355 22.5155 7.6358 28.4212 14.9344 28.4251C22.2906 28.4289 28.1888 22.5719 28.1888 15.2622C28.1888 7.99163 22.2913 2.12179 14.9875 2.12243L14.9882 2.12179Z" fill="white"/>
<path d="M10.3676 15.2648C10.3676 13.6132 10.3644 11.961 10.3683 10.3094C10.3708 9.02189 11.239 8.39415 12.4054 8.9611C13.5691 9.52678 14.6574 10.2511 15.7674 10.9243C17.3924 11.9091 18.9785 12.9618 20.6374 13.8845C21.7257 14.4899 21.7711 15.9661 20.6733 16.5945C17.983 18.1341 15.365 19.7998 12.7252 21.4264C12.1757 21.7649 11.6095 21.9083 11.0215 21.6203C10.3817 21.3068 10.3542 20.6995 10.3612 20.0705C10.3798 18.4688 10.3676 16.8671 10.367 15.2654L10.3676 15.2648Z" fill="white"/>
</g>
<defs>
<clipPath id="clip0_571_248">
<rect width="30" height="30" fill="white" transform="translate(0 0.259033)"/>
</clipPath>
</defs>
</svg>
