<svg width="40" height="27" viewBox="0 0 40 27" fill="none" xmlns="http://www.w3.org/2000/svg">
<g clip-path="url(#clip0_631_274)">
<path d="M17.7013 0.191311V3.06236C14.0456 3.46185 11.2685 5.17552 9.85764 8.9426C10.5017 9.17408 11.0117 9.34955 11.5105 9.53996C15.5421 11.0595 17.88 15.2895 16.9642 19.4038C16.0038 23.7235 11.9907 26.5983 7.58309 26.1278C3.43233 25.6873 0.148939 22.0733 0.00747748 17.7835C-0.297781 8.52072 8.21595 -0.0513651 17.7013 0.191311Z" fill="#C92E17"/>
<path d="M39.7804 0.217376C40.216 2.01692 40.2085 3.12576 37.9117 3.51404C35.0564 3.99566 33.1355 5.98935 32.0969 8.92387C32.7409 9.17028 33.3588 9.39802 33.9694 9.64443C38.0345 11.2797 40.1788 15.5732 39.0582 19.8368C37.9787 23.9437 33.9768 26.6393 29.7181 26.124C25.5413 25.62 22.3212 21.9649 22.2728 17.6752C22.1648 8.27051 30.5222 -0.137306 39.7804 0.217376Z" fill="#C92E17"/>
</g>
<defs>
<clipPath id="clip0_631_274">
<rect width="40" height="26" fill="white" transform="translate(0 0.1875)"/>
</clipPath>
</defs>
</svg>
