<svg width="26" height="31" viewBox="0 0 26 31" fill="none" xmlns="http://www.w3.org/2000/svg">
<g clip-path="url(#clip0_533_1186)">
<path d="M0.019043 11.536C0.271645 11.536 0.461628 11.536 0.65161 11.536C8.87605 11.536 17.1005 11.5414 25.3249 11.5231C25.8726 11.5221 26.0021 11.6777 25.9999 12.2131C25.9798 17.2019 25.9904 22.1917 25.9872 27.1804C25.9872 29.1044 24.8452 30.258 22.9496 30.258C16.2992 30.258 9.64871 30.2591 2.99933 30.258C1.20033 30.258 0.0232884 29.0873 0.022227 27.2898C0.019043 22.211 0.0211657 17.1332 0.0211657 12.0543C0.0211657 11.9127 0.0211657 11.7699 0.0211657 11.536H0.019043Z" fill="#C92E17"/>
<path d="M12.9444 9.59472C8.85923 9.59472 4.77408 9.58506 0.688925 9.60652C0.163554 9.60867 -0.0423483 9.48848 0.00647396 8.92512C0.0595417 8.32205 0.0170875 7.71039 0.0181489 7.10196C0.0223943 5.21871 1.14637 4.0555 3.00905 4.01901C3.69893 4.00506 4.38881 3.99862 5.07763 4.0233C5.45441 4.03618 5.56585 3.89561 5.5616 3.52647C5.55524 2.95667 5.55948 2.37935 5.63802 1.81706C5.78024 0.815878 6.57838 0.191348 7.54103 0.264317C8.55993 0.341578 9.21585 1.04766 9.23495 2.0982C9.2445 2.59826 9.24557 3.09939 9.23495 3.60051C9.22858 3.89239 9.33578 4.02008 9.63614 4.02008C11.882 4.01365 14.1278 4.01257 16.3736 4.02008C16.6857 4.02008 16.7674 3.87737 16.761 3.593C16.7493 3.09295 16.7525 2.59182 16.7589 2.09069C16.7738 1.01225 17.5114 0.269682 18.5674 0.262171C19.6054 0.254659 20.3569 1.01976 20.3611 2.08962C20.3622 2.48344 20.3611 2.87619 20.3611 3.27C20.3622 4.01472 20.3633 4.00399 21.0775 4.01794C21.9234 4.03403 22.7789 4.00292 23.6142 4.11452C25.0523 4.3066 25.947 5.39577 25.9831 6.8852C26.0001 7.58163 25.9555 8.28127 25.9969 8.97663C26.0277 9.48956 25.8303 9.60545 25.359 9.6033C21.2208 9.58828 17.0826 9.59472 12.9444 9.59472Z" fill="#C92E17"/>
</g>
<defs>
<clipPath id="clip0_533_1186">
<rect width="26" height="30" fill="white" transform="translate(0 0.259033)"/>
</clipPath>
</defs>
</svg>
