<svg width="40" height="43" viewBox="0 0 40 43" fill="none" xmlns="http://www.w3.org/2000/svg">
<g clip-path="url(#clip0_517_1113)">
<path d="M40.0002 12.498C39.55 21.5605 36.623 29.7798 29.9296 36.4274C27.6344 38.7062 24.9103 40.4365 21.9757 41.8102C20.5671 42.4691 19.1204 42.3784 17.7103 41.7059C10.9009 38.4629 6.19756 33.2373 3.11641 26.4945C1.50946 22.981 0.607544 19.2726 0.206185 15.4493C0.0566299 14.0303 -0.0730867 12.5826 0.0474734 11.1697C0.229077 9.02834 1.60712 7.72118 3.55898 6.91119C8.63929 4.80613 13.7104 2.6784 18.777 0.543114C19.4943 0.24088 20.2008 0.139632 20.9166 0.438844C26.1754 2.63911 31.4312 4.84844 36.6855 7.06382C39.0281 8.05213 40.0032 9.89274 39.9986 12.4965L40.0002 12.498ZM15.76 13.4107C15.3098 13.4727 14.8428 13.4787 14.4109 13.6042C10.5011 14.736 9.29855 19.2318 12.1645 22.2058C14.3377 24.4604 16.6191 26.6123 18.8686 28.793C19.5889 29.4896 20.3153 29.5077 21.0219 28.8262C23.3293 26.5957 25.6444 24.3713 27.8907 22.0803C29.3619 20.5813 29.7541 18.727 29.02 16.7731C27.6847 13.2173 23.3095 12.2864 20.5488 14.9385C20.0925 15.3768 19.8132 15.3828 19.3783 14.9325C18.4031 13.9245 17.1975 13.4002 15.7584 13.4092L15.76 13.4107Z" fill="#C92E17"/>
</g>
<defs>
<clipPath id="clip0_517_1113">
<rect width="40" height="42" fill="white" transform="translate(0 0.259033)"/>
</clipPath>
</defs>
</svg>
