<svg width="126" height="101" viewBox="0 0 126 101" fill="none" xmlns="http://www.w3.org/2000/svg">
<g clip-path="url(#clip0_520_1510)">
<path d="M63.2438 32.1882C71.691 32.1882 80.1382 32.2112 88.5854 32.1619C89.9192 32.1553 90.8183 32.4741 91.6976 33.588C95.5177 38.4248 99.4334 43.1894 103.392 47.9145C104.508 49.2486 104.601 50.2311 103.441 51.644C90.4889 67.4164 77.5958 83.2348 64.6863 99.0465C63.3821 100.643 62.763 100.663 61.5214 99.1385C48.6218 83.3235 35.7352 67.4985 22.7895 51.7196C21.673 50.3593 21.5216 49.4326 22.7104 48.023C26.6887 43.3176 30.578 38.5366 34.4081 33.7096C35.317 32.5661 36.2556 32.1488 37.6914 32.1586C46.2078 32.2178 54.7209 32.1882 63.2372 32.1882H63.2438ZM62.8816 92.9019C63.0133 92.9085 63.1417 92.915 63.2735 92.9216C66.8993 79.548 70.489 66.1645 74.1906 52.8105C74.6517 51.1512 73.9963 51.2103 72.8041 51.2169C66.3494 51.2497 59.8913 51.2859 53.4398 51.1939C51.8327 51.1709 51.6549 51.6769 52.0303 53.0307C54.0161 60.2071 55.9591 67.3934 57.912 74.5764C59.5718 80.6849 61.2283 86.7934 62.8881 92.9019H62.8816ZM66.7511 92.1659C77.9449 78.4571 88.9016 65.0407 99.9933 51.4567C99.4532 51.3155 99.272 51.23 99.0942 51.2267C92.3035 51.2136 85.5095 51.2333 78.7188 51.1742C77.4806 51.1643 77.306 51.8708 77.0557 52.7843C73.9271 64.3244 70.7557 75.8513 67.6436 87.3947C67.2649 88.8011 66.5272 90.1549 66.7478 92.1626L66.7511 92.1659ZM25.9378 51.2037C37.3127 65.1097 48.3451 78.6016 59.7167 92.5076C59.1272 88.1045 57.4905 84.5984 56.6145 80.8689C54.3817 71.3496 51.5791 61.9684 49.0499 52.5148C48.793 51.5586 48.4439 51.1742 47.4065 51.1807C40.4742 51.2234 33.5386 51.2037 25.9345 51.2037H25.9378ZM39.4171 34.9352C42.3481 38.5267 45.1013 41.8882 47.8413 45.2595C49.7382 47.5958 49.7415 47.609 51.6483 45.2825C54.4014 41.9243 57.1348 38.553 60.0823 34.9352H39.4138H39.4171ZM86.7643 34.9451H66.0892C69.6327 39.2825 72.982 43.3833 76.4366 47.609C79.8879 43.3767 83.2306 39.2759 86.7643 34.9451ZM73.4924 48.3647C70.0213 44.1292 66.8598 40.2978 63.7312 36.4467C62.9705 35.5102 62.5918 36.2364 62.1801 36.7359C60.1416 39.2135 58.0701 41.668 56.1106 44.2048C55.1029 45.5093 53.7263 46.5805 53.1072 48.3647H73.4957H73.4924ZM79.5421 48.23H99.9834C96.7033 44.208 93.6109 40.4128 90.5153 36.6209C90.1135 36.128 89.8138 35.6318 89.1486 36.4632C86.0463 40.3274 82.8848 44.1456 79.5421 48.2333V48.23ZM46.7183 48.3549C43.2999 44.1456 40.1317 40.2419 36.9636 36.3416C36.2292 35.4347 35.9493 36.3186 35.6167 36.7162C33.7791 38.9177 31.9612 41.1324 30.1532 43.357C28.8622 44.9441 27.5976 46.5509 26.1552 48.3549H46.7183Z" fill="#C92E17"/>
<path d="M5.16712 64.5182C4.07376 64.5182 2.98369 64.5084 1.89033 64.5248C0.925405 64.5379 0 64.3704 0 63.2039C0 62.1327 0.740983 61.7285 1.8047 61.7449C4.19232 61.7811 6.58322 61.7712 8.97083 61.7515C9.92587 61.7449 10.5911 62.0407 10.6142 63.102C10.6339 64.1338 10.0444 64.5379 9.05975 64.5248C7.76221 64.5051 6.46796 64.5215 5.17041 64.5248L5.16712 64.5182Z" fill="#C92E17"/>
<path d="M19.4664 18.2494C20.2963 18.2888 26.4053 24.44 26.402 25.2286C26.402 25.7609 26.0924 26.1487 25.6939 26.4083C25.1999 26.7303 24.5907 26.7599 24.1658 26.3458C22.1635 24.3907 20.1876 22.4126 18.2413 20.4049C17.8164 19.9679 17.9317 19.3501 18.2479 18.877C18.5146 18.4794 18.923 18.1968 19.4631 18.2527L19.4664 18.2494Z" fill="#C92E17"/>
<path d="M101.04 26.566C100.447 26.566 99.9963 26.3294 99.769 25.9088C99.4628 25.3436 99.4496 24.716 99.9502 24.21C101.827 22.3272 103.704 20.4443 105.605 18.5812C106.181 18.0161 106.84 18.0489 107.432 18.5812C107.933 19.0347 108.223 19.6722 107.755 20.2143C105.848 22.4356 103.764 24.4893 101.557 26.4181C101.422 26.5364 101.172 26.5298 101.044 26.5627L101.04 26.566Z" fill="#C92E17"/>
<path d="M64.3142 5.62493C64.3142 6.85714 64.2977 8.08936 64.3208 9.31829C64.3372 10.2219 63.9289 10.7904 63.0364 10.8397C61.9924 10.8988 61.6104 10.2613 61.6203 9.27557C61.6434 6.74542 61.6499 4.21199 61.6302 1.68184C61.6236 0.742069 62.0814 0.229467 62.9672 0.255755C63.8301 0.278756 64.3307 0.794643 64.3208 1.72127C64.3076 3.02249 64.3175 4.32042 64.3175 5.62164L64.3142 5.62493Z" fill="#C92E17"/>
<path d="M120.662 64.3769C119.364 64.3769 118.07 64.3704 116.772 64.3769C115.85 64.3802 115.369 63.8808 115.35 63.0133C115.33 62.0867 115.886 61.6989 116.795 61.7055C119.387 61.7186 121.982 61.7219 124.574 61.7055C125.499 61.6989 126.026 62.1327 126 63.033C125.977 63.8972 125.473 64.3901 124.551 64.3802C123.253 64.3704 121.959 64.3802 120.662 64.3769Z" fill="#C92E17"/>
<path d="M66.7508 92.1658C66.5302 90.1582 67.2679 88.8044 67.6466 87.398C70.762 75.8546 73.9301 64.3276 77.0587 52.7875C77.3057 51.874 77.4803 51.1676 78.7218 51.1774C85.5125 51.2366 92.3065 51.2169 99.0972 51.23C99.2751 51.23 99.4562 51.3187 99.9963 51.46C88.9046 65.044 77.9479 78.4603 66.7541 92.1691L66.7508 92.1658Z" fill="#F4E6DB"/>
<path d="M25.9346 51.2004C33.5387 51.2004 40.4743 51.2202 47.4066 51.1775C48.444 51.1709 48.7931 51.5586 49.0499 52.5115C51.5759 61.9618 54.3817 71.3463 56.6145 80.8656C57.4906 84.5951 59.124 88.1012 59.7168 92.5043C48.3452 78.5983 37.3095 65.1097 25.9379 51.2004H25.9346Z" fill="#F4E6DB"/>
<path d="M73.4926 48.3647H53.104C53.7231 46.5805 55.0997 45.5093 56.1075 44.2048C58.0669 41.668 60.1384 39.2135 62.1769 36.7359C62.5886 36.2364 62.9706 35.5103 63.728 36.4467C66.8599 40.3011 70.0182 44.1325 73.4893 48.3647H73.4926Z" fill="#F4E6DB"/>
</g>
<defs>
<clipPath id="clip0_520_1510">
<rect width="126" height="100" fill="white" transform="translate(0 0.259033)"/>
</clipPath>
</defs>
</svg>
