<svg width="100" height="101" viewBox="0 0 100 101" fill="none" xmlns="http://www.w3.org/2000/svg">
<g clip-path="url(#clip0_520_1466)">
<path d="M49.7862 63.1157C56.8473 63.1157 62.5715 57.3917 62.5715 50.3308C62.5715 43.2699 56.8473 37.546 49.7862 37.546C42.7251 37.546 37.001 43.2699 37.001 50.3308C37.001 57.3917 42.7251 63.1157 49.7862 63.1157Z" fill="#F4E6DB"/>
<path d="M10.4287 50.4325C10.4586 70.7028 25.5108 87.6147 45.5664 89.9145C67.0396 92.3758 86.6855 76.8695 89.3383 55.4178C90.4658 46.2965 88.5397 37.8629 83.9311 29.9827C83.5872 29.3935 83.0847 28.8343 83.4257 28.1016C83.65 27.6171 84.1344 27.4467 84.6698 27.4437C85.4294 27.4437 85.7315 28.0238 86.0485 28.5502C89.5087 34.2981 91.5514 40.5186 91.982 47.2116C92.0777 48.683 92.4875 49.1555 93.932 49.0418C95.4812 48.9192 97.0483 49.003 98.6064 49.0119C99.4827 49.0179 100.042 49.3828 99.9941 50.3547C99.9523 51.222 99.4349 51.533 98.6334 51.533C97.0124 51.533 95.3735 51.6826 93.7735 51.5031C92.2123 51.3297 92.0897 52.0833 92.0269 53.3005C91.6232 60.9385 89.2216 67.9395 84.8732 74.2018C77.199 85.2551 66.5491 91.3141 53.1628 92.4804C51.5059 92.624 51.0513 93.1444 51.2128 94.7025C51.3534 96.0602 51.2128 97.4419 51.2517 98.8146C51.2756 99.7297 50.9108 100.274 49.9777 100.256C49.1343 100.241 48.7993 99.7058 48.8083 98.8863C48.8263 97.2654 48.7186 95.6385 48.8412 94.0266C48.9369 92.7735 48.3268 92.624 47.3249 92.5522C41.4273 92.1246 35.7659 90.728 30.565 87.8719C17.0022 80.4283 9.41183 69.0072 8.06602 53.5547C7.93442 52.0474 7.68021 51.2728 5.9486 51.5091C4.6626 51.6855 3.33473 51.533 2.0248 51.545C1.05283 51.554 -0.0118629 51.5689 9.98914e-05 50.2441C0.0120627 48.8684 1.16647 49.0299 2.07864 49.0119C3.51118 48.985 4.9527 48.9282 6.37926 49.0209C7.5576 49.0957 7.96433 48.7398 8.04807 47.5047C9.24435 30.1053 20.7496 15.5321 37.3659 10.2776C40.6467 9.23983 44.0052 8.56096 47.4386 8.45928C48.6917 8.42339 48.8681 7.94489 48.8292 6.90117C48.7635 5.15764 48.8352 3.41113 48.7993 1.66461C48.7844 0.839205 49.1134 0.282951 49.9238 0.262017C50.8031 0.235102 51.2607 0.752477 51.2427 1.68854C51.2158 3.37225 51.3085 5.05895 51.2158 6.73669C51.15 7.95087 51.3803 8.44731 52.7859 8.47423C55.5254 8.52208 58.229 9.06039 60.8848 9.76617C61.8388 10.0204 63.047 10.1579 62.6313 11.6084C62.2455 12.9631 61.133 12.4577 60.2896 12.2245C52.5497 10.0832 44.9084 10.4241 37.318 12.9691C21.246 18.3612 10.3958 33.4608 10.4227 50.4355L10.4287 50.4325Z" fill="#C92E17"/>
<path d="M21.7752 50.3458C21.9876 33.8974 35.3859 21.2202 52.4089 22.3208C54.0718 22.4284 55.7167 22.88 57.3645 23.191C58.3335 23.3735 59.0423 23.837 58.7253 24.9645C58.4113 26.0889 57.4871 25.8557 56.7215 25.6403C52.1667 24.3574 47.6388 24.4471 43.0929 25.7091C31.3544 28.9719 23.8687 39.5676 24.3203 52.3375C24.7061 63.1874 33.747 73.6097 44.8814 75.7002C54.7447 77.5513 63.2233 74.6475 69.6832 66.9945C76.0474 59.4582 77.3693 50.7734 74.1334 41.4337C74.0108 41.0809 73.8792 40.731 73.7207 40.393C73.3259 39.5556 72.9999 38.6375 74.0855 38.162C75.2998 37.6327 75.6796 38.6226 76.0714 39.5198C77.1271 41.9332 77.788 44.4573 78.102 47.0591C80.1148 63.8095 67.192 78.4994 50.2526 78.7476C34.6203 78.9779 21.5988 65.9926 21.7692 50.3458H21.7752Z" fill="#C92E17"/>
<path d="M60.137 41.045C57.0356 44.3526 54.3769 48.025 51.458 51.4852C50.9406 52.0983 50.3544 52.5947 49.5529 52.0355C48.6796 51.4284 48.8889 50.6628 49.4332 49.936C49.843 49.3918 50.2796 48.8714 50.7073 48.342C53.1985 45.2498 55.6898 42.1605 58.181 39.0682C62.1258 34.2533 66.0346 29.4085 70.0422 24.6445C70.8825 23.6456 70.7659 22.6318 70.4549 21.6867C69.3932 18.4689 70.1139 15.9268 72.5035 13.4536C75.1742 10.6843 77.4292 7.51425 79.8756 4.52962C80.372 3.92253 80.7877 3.10609 81.8046 3.37824C82.7466 3.63244 82.6719 4.4728 82.7945 5.19354C82.8274 5.37596 82.9141 5.54942 82.95 5.73185C83.2162 7.11351 82.8304 9.04843 83.8801 9.7273C84.897 10.3852 86.6555 9.87384 88.085 9.93066C88.7849 9.95758 89.6641 9.58076 90.0888 10.4809C90.4926 11.3392 90.032 12.0032 89.4877 12.6671C86.3355 16.525 83.1923 20.3888 80.0879 24.2856C79.4718 25.0572 78.7301 25.4639 77.8329 25.2845C73.8732 24.4919 71.4478 26.3611 69.2556 29.4773C66.6507 33.1886 63.5583 36.5561 60.6872 40.082C60.457 40.3631 60.3164 40.716 60.134 41.036L60.137 41.045ZM74.9888 22.5899C77.0224 23.0295 78.5028 22.8172 79.5107 21.0557C79.9683 20.2572 80.6741 19.6023 81.2573 18.8756C82.8932 16.836 84.5231 14.7934 86.2637 12.6162C84.2659 12.1288 82.941 12.4398 81.9092 13.959C81.0031 15.2898 79.9055 16.4921 78.8916 17.7481C77.6266 19.3182 76.3615 20.8883 74.9888 22.5899ZM73.0927 20.7926C75.4224 17.9365 77.5847 15.0835 79.9773 12.4368C81.3291 10.9415 81.1705 9.59272 80.4677 7.79537C78.144 10.6693 76.0564 13.4416 73.7566 16.0225C72.4586 17.479 72.1865 18.8636 73.0957 20.7896L73.0927 20.7926Z" fill="#C92E17"/>
<path d="M42.8864 38.7063C45.5721 37.6955 48.2607 36.7176 51.2155 37.0346C51.7688 37.0944 52.352 37.0555 52.7857 37.4951C53.1804 37.8959 53.2462 38.4162 53.0458 38.8858C52.7498 39.5676 52.0858 39.6035 51.4458 39.5557C49.3643 39.4001 47.3516 39.5975 45.4345 40.5246C40.3743 42.9679 37.9608 48.2912 39.5309 53.6325C41.0083 58.6567 46.0596 62.051 51.1079 61.414C56.853 60.6903 60.8605 56.3001 61.0011 50.5731C61.0579 48.2344 61.2493 48.046 63.2172 48.369C64.8621 53.761 60.8456 60.8847 54.9001 63.1187C49.0114 65.3287 42.387 63.2861 38.864 58.1722C35.3768 53.1061 35.7626 46.0154 39.7821 41.371C40.147 40.9493 40.5387 40.5485 40.9216 40.1358C41.0561 40.0042 41.1907 39.8727 41.3253 39.7411C41.4389 39.6693 41.5167 39.5736 41.6304 39.5018C41.9115 39.2715 42.7549 38.7721 42.8835 38.7003L42.8864 38.7063Z" fill="#C92E17"/>
<path d="M74.9888 22.5899C76.3615 20.8883 77.6266 19.3182 78.8916 17.7481C79.9055 16.4891 81.0061 15.2898 81.9092 13.959C82.941 12.4398 84.2659 12.1288 86.2637 12.6162C84.5231 14.7934 82.8932 16.836 81.2573 18.8756C80.6741 19.6023 79.9683 20.2572 79.5107 21.0557C78.5028 22.8202 77.0224 23.0295 74.9888 22.5899Z" fill="#F4E6DB"/>
<path d="M73.0926 20.7896C72.1834 18.8636 72.4556 17.479 73.7535 16.0225C76.0564 13.4416 78.1409 10.6694 80.4647 7.79538C81.1675 9.59274 81.326 10.9415 79.9742 12.4368C77.5816 15.0805 75.4194 17.9365 73.0896 20.7926L73.0926 20.7896Z" fill="#F4E6DB"/>
</g>
<defs>
<clipPath id="clip0_520_1466">
<rect width="100" height="100" fill="white" transform="translate(0 0.259033)"/>
</clipPath>
</defs>
</svg>
