<svg width="122" height="117" viewBox="0 0 122 117" fill="none" xmlns="http://www.w3.org/2000/svg">
<path d="M0 58.6797V31.2628C0 14.1955 17.9948 0.34729 40.2079 0.34729H121.319V86.0846C121.319 103.152 103.324 117 81.1109 117H0V58.6797Z" fill="#C92E17"/>
<path d="M51.208 93.0262C71.9044 97.8387 92.7831 74.0312 90.3525 48.2184C89.8785 43.977 88.8334 34.4978 81.7847 29.5758C80.5815 28.7373 77.5433 26.6834 73.6422 27.0359C67.8817 27.5584 64.5762 32.9422 63.8713 34.0967C60.3956 39.3589 61.2341 55.4494 62.972 65.9495C63.3123 55.6681 62.5952 48.6073 64.5762 39.4318C65.0987 36.9891 67.3106 32.5533 71.8436 30.8276C75.6839 29.2112 79.5607 31.338 81.3107 33.5498C85.0781 37.8763 86.8889 44.3295 86.8646 48.583C88.5782 61.9633 82.21 79.2326 70.0328 87.448C63.7376 91.6165 57.7827 93.7189 51.1958 93.0383L51.208 93.0262Z" fill="white"/>
<path d="M70.8342 24.3016C50.1378 19.4891 29.2591 43.2966 31.6896 69.1094C32.1636 73.3508 33.2088 82.83 40.2575 87.752C41.4606 88.5905 44.4988 90.6444 48.3999 90.2919C54.1604 89.7694 57.466 84.3856 58.1708 83.2311C61.6466 77.9689 60.808 61.8784 59.0702 51.3783C58.7299 61.6597 59.4469 68.7205 57.466 77.896C56.9434 80.3387 54.7316 84.7745 50.1985 86.5002C46.3582 88.1166 42.4814 85.9898 40.7314 83.778C36.964 79.4515 35.1532 72.9983 35.1775 68.7448C33.464 55.3645 39.8321 38.0952 52.0093 29.8798C58.3045 25.7114 64.2595 23.6089 70.8463 24.2895L70.8342 24.3016Z" fill="white"/>
</svg>
