<svg width="16" height="16" viewBox="0 0 16 16" fill="none" xmlns="http://www.w3.org/2000/svg">
<circle cx="8" cy="8" r="8" fill="#C92E17"/>
<path d="M6.66986 12.396C9.4741 13.048 12.303 9.82226 11.9737 6.32478C11.9095 5.7501 11.7679 4.46572 10.8128 3.79882C10.6498 3.68521 10.2381 3.40692 9.70957 3.45467C8.92906 3.52548 8.48117 4.25494 8.38567 4.41138C7.91472 5.12437 8.02834 7.30453 8.26381 8.72724C8.30992 7.33417 8.21277 6.37747 8.48117 5.13425C8.55198 4.80328 8.85167 4.20225 9.46587 3.96843C9.98621 3.74942 10.5115 4.03759 10.7486 4.33728C11.2591 4.92348 11.5044 5.79785 11.5011 6.37418C11.7333 8.18714 10.8705 10.527 9.22052 11.6402C8.36755 12.205 7.5607 12.4898 6.66821 12.3976L6.66986 12.396Z" fill="white"/>
<path d="M9.33007 3.08452C6.52583 2.43244 3.6969 5.65822 4.02623 9.1557C4.09044 9.73038 4.23206 11.0148 5.18711 11.6817C5.35013 11.7953 5.76179 12.0736 6.29036 12.0258C7.07087 11.955 7.51876 11.2255 7.61427 11.0691C8.08521 10.3561 7.97159 8.17595 7.73612 6.75324C7.69001 8.14631 7.78717 9.10301 7.51876 10.3462C7.44796 10.6772 7.14827 11.2782 6.53407 11.5121C6.01373 11.7311 5.48845 11.4429 5.25133 11.1432C4.74087 10.557 4.49552 9.68263 4.49881 9.1063C4.26664 7.29334 5.12948 4.95346 6.77942 3.84033C7.63238 3.27553 8.43924 2.99066 9.33172 3.08287L9.33007 3.08452Z" fill="white"/>
</svg>
