<svg width="200" height="59" viewBox="0 0 200 59" fill="none" xmlns="http://www.w3.org/2000/svg">
<g clip-path="url(#clip0_557_89)">
<path d="M0 30.4722V17.4094C0 9.27767 6.5922 2.67969 14.7297 2.67969H44.4438V43.5293C44.4438 51.661 37.8516 58.259 29.7141 58.259H0V30.4722Z" fill="#C92E17"/>
<path d="M17.5484 46.8341C27.4049 49.1261 37.3481 37.7879 36.1906 25.4949C35.9649 23.4749 35.4671 18.9605 32.1103 16.6165C31.5373 16.2172 30.0904 15.239 28.2325 15.4069C25.4891 15.6557 23.9149 18.2197 23.5792 18.7695C21.9239 21.2756 22.3233 28.9385 23.1509 33.9391C23.3129 29.0427 22.9715 25.6801 23.9149 21.3103C24.1637 20.147 25.2171 18.0345 27.3759 17.2126C29.2048 16.4429 31.0511 17.4557 31.8845 18.5091C33.6787 20.5695 34.5411 23.6428 34.5295 25.6685C35.3456 32.0407 32.3128 40.2651 26.5136 44.1776C23.5155 46.1628 20.6795 47.164 17.5426 46.8399L17.5484 46.8341Z" fill="white"/>
<path d="M26.8955 14.1047C17.0391 11.8127 7.09577 23.1509 8.25331 35.444C8.47903 37.4639 8.97677 41.9783 12.3336 44.3223C12.9066 44.7217 14.3536 45.6998 16.2114 45.5319C18.9548 45.2831 20.529 42.7191 20.8647 42.1693C22.52 39.6632 22.1207 32.0003 21.293 26.9997C21.131 31.8961 21.4724 35.2588 20.529 39.6285C20.2802 40.7918 19.2268 42.9043 17.068 43.7262C15.2391 44.4959 13.3928 43.4831 12.5594 42.4297C10.7652 40.3693 9.90281 37.296 9.91438 35.2703C9.09832 28.8981 12.1311 20.6737 17.9304 16.7612C20.9284 14.776 23.7644 13.7748 26.9013 14.0989L26.8955 14.1047Z" fill="white"/>
<path d="M77.6421 31.433H71.5766L69.9734 26.4613H62.5362L60.9446 31.433H55.5504L63.5317 8.76831H69.6898L77.6363 31.433H77.6421ZM66.2808 14.8628L63.6937 22.873H68.8679L66.2808 14.8628Z" fill="#37251C"/>
<path d="M80.4202 31.433V8.77417H88.4651C90.1898 8.77417 91.7467 9.00568 93.1358 9.4687C94.5248 9.93171 95.7286 10.6204 96.7531 11.5349C97.7775 12.4494 98.5646 13.6358 99.1202 15.0886C99.6759 16.5413 99.9537 18.2139 99.9537 20.1065C99.9537 21.9991 99.6759 23.6717 99.126 25.1244C98.5762 26.5772 97.7891 27.7636 96.7646 28.6781C95.7402 29.5926 94.5306 30.2813 93.1415 30.7443C91.7467 31.2073 90.1898 31.4388 88.4651 31.4388H80.4202V31.433ZM85.9069 26.7392H88.3667C90.103 26.7392 91.492 26.201 92.5454 25.1187C93.593 24.0364 94.1197 22.3637 94.1197 20.1007C94.1197 17.8377 93.5872 16.1766 92.528 15.0886C91.4689 14.0005 90.0798 13.4622 88.3667 13.4622H85.9069V26.7392Z" fill="#37251C"/>
<path d="M121.224 31.433H114.863L110.048 23.6428H108.224V31.433H102.738V8.77417H111.934C114.707 8.77417 116.86 9.38188 118.388 10.5973C119.916 11.8127 120.68 13.6011 120.68 15.9567C120.68 17.7451 120.24 19.2557 119.354 20.4943C118.469 21.7328 117.219 22.6126 115.598 23.145L121.224 31.4388V31.433ZM110.84 13.3696H108.224V19.9155H110.84C113.48 19.9155 114.799 18.7869 114.799 16.5355C114.799 14.4288 113.48 13.3696 110.84 13.3696Z" fill="#37251C"/>
<path d="M123.458 31.433V8.77417H128.944V31.4388H123.458V31.433Z" fill="#37251C"/>
<path d="M153.808 31.433H147.743L146.14 26.4613H138.702L137.111 31.433H131.717L139.698 8.76831H145.856L153.803 31.433H153.808ZM142.447 14.8628L139.86 22.873H145.034L142.447 14.8628Z" fill="#37251C"/>
<path d="M170.691 21.4435V8.77417H175.57V31.4388H170.147L161.465 17.4557V31.4388H156.586V8.77417H162.229L170.691 21.4435Z" fill="#37251C"/>
<path d="M180.733 8.25903C181.479 8.25903 182.099 8.49633 182.591 8.97671C183.083 9.45709 183.326 10.1516 183.326 11.0603C183.326 11.7432 183.175 12.4551 182.874 13.1902C182.573 13.9252 182.174 14.6024 181.676 15.2216C181.178 15.8409 180.646 16.4081 180.067 16.9174C179.488 17.4325 178.898 17.8666 178.296 18.2312L176.959 16.6107C177.573 16.1303 178.186 15.5689 178.806 14.9265C179.425 14.284 179.882 13.6647 180.177 13.0802C179.535 12.9992 179.02 12.7561 178.626 12.3452C178.233 11.9342 178.036 11.4075 178.036 10.7535C178.036 10.0127 178.29 9.41657 178.8 8.95356C179.309 8.49633 179.951 8.26482 180.727 8.26482L180.733 8.25903Z" fill="#C92E17"/>
<path d="M192.25 31.433C188.552 31.433 185.704 30.206 183.702 27.7462L185.861 24.343C186.879 25.2459 187.846 25.9462 188.76 26.4498C189.675 26.9533 190.659 27.2022 191.718 27.2022C192.58 27.2022 193.252 27.0227 193.732 26.6639C194.212 26.3051 194.455 25.8247 194.455 25.2228C194.455 24.6903 194.259 24.2446 193.859 23.8916C193.46 23.5385 192.875 23.2029 192.106 22.873C191.857 22.7746 191.475 22.6183 190.954 22.4099C190.433 22.2016 190.011 22.0279 189.681 21.8948C189.351 21.7617 188.94 21.5707 188.448 21.3218C187.95 21.073 187.545 20.8357 187.227 20.5984C186.908 20.3669 186.567 20.0659 186.202 19.7013C185.838 19.3367 185.548 18.9547 185.334 18.5553C185.12 18.1618 184.94 17.6872 184.796 17.1431C184.651 16.5991 184.582 16.0145 184.582 15.3894C184.582 14.3014 184.79 13.3232 185.207 12.4609C185.623 11.5985 186.185 10.904 186.897 10.3773C187.603 9.85061 188.402 9.45126 189.281 9.17924C190.161 8.90722 191.104 8.76831 192.106 8.76831C195.376 8.76831 197.835 9.81589 199.479 11.9052L197.216 15.1637C196.313 14.4403 195.503 13.8962 194.785 13.5258C194.068 13.1612 193.286 12.976 192.441 12.976C191.66 12.976 191.029 13.1438 190.56 13.4737C190.092 13.8036 189.854 14.2608 189.854 14.8338C189.854 15.3316 190.051 15.7367 190.439 16.0608C190.832 16.3849 191.411 16.7033 192.187 17.0216C192.453 17.1315 192.846 17.2878 193.367 17.4962C193.888 17.7045 194.322 17.8782 194.675 18.0171C195.028 18.156 195.451 18.347 195.954 18.5958C196.452 18.8447 196.875 19.082 197.216 19.3193C197.558 19.5508 197.916 19.8518 198.293 20.2106C198.669 20.5752 198.97 20.9456 199.201 21.3334C199.427 21.7212 199.618 22.1784 199.769 22.7167C199.919 23.2549 199.994 23.8221 199.994 24.4241C199.994 25.9404 199.647 27.2369 198.958 28.3076C198.27 29.3783 197.355 30.1655 196.209 30.669C195.063 31.1725 193.744 31.4272 192.245 31.4272L192.25 31.433Z" fill="#37251C"/>
<path d="M55.5562 47.1293C55.5562 43.8593 57.8828 41.5731 61.0892 41.5731C62.8313 41.5731 64.3361 42.2445 65.239 43.5872L64.4634 44.1544C63.6647 43.0432 62.4493 42.5165 61.0892 42.5165C58.5079 42.5165 56.6211 44.3628 56.6211 47.1293C56.6211 49.8958 58.5079 51.7421 61.0892 51.7421C62.4493 51.7421 63.6705 51.2154 64.4634 50.1042L65.239 50.6714C64.3361 51.991 62.8255 52.6855 61.0892 52.6855C57.8828 52.6855 55.5562 50.382 55.5562 47.1293Z" fill="#37251C"/>
<path d="M68.0171 47.1293C68.0171 43.8824 70.3438 41.5731 73.4865 41.5731C76.6292 41.5731 78.9559 43.8766 78.9559 47.1293C78.9559 50.382 76.6292 52.6855 73.4865 52.6855C70.3438 52.6855 68.0171 50.382 68.0171 47.1293ZM77.8909 47.1293C77.8909 44.3802 76.0041 42.5165 73.4865 42.5165C70.9688 42.5165 69.082 44.3802 69.082 47.1293C69.082 49.8785 70.9688 51.7421 73.4865 51.7421C76.0041 51.7421 77.8909 49.8785 77.8909 47.1293Z" fill="#37251C"/>
<path d="M84.7783 40.0625V41.6541H88.2799V42.557H84.8014V52.5986H83.7539V42.557H81.7397V41.6541H83.7539V39.9757C83.7539 38.1525 84.842 36.9545 86.7924 36.9545C87.5911 36.9545 88.4303 37.186 88.9512 37.6664L88.5345 38.4651C88.0946 38.0657 87.4869 37.8574 86.8387 37.8574C85.4786 37.8574 84.7841 38.6098 84.7841 40.0567L84.7783 40.0625Z" fill="#37251C"/>
<path d="M94.0965 40.0625V41.6541H97.5981V42.557H94.1197V52.5986H93.0721V42.557H91.058V41.6541H93.0721V39.9757C93.0721 38.1525 94.1602 36.9545 96.1106 36.9545C96.9093 36.9545 97.7486 37.186 98.2695 37.6664L97.8528 38.4651C97.4129 38.0657 96.8052 37.8574 96.1569 37.8574C94.7968 37.8574 94.1023 38.6098 94.1023 40.0567L94.0965 40.0625Z" fill="#37251C"/>
<path d="M109.318 47.3782H99.9074C100.012 49.9769 101.921 51.7363 104.543 51.7363C105.927 51.7363 107.206 51.2328 108.045 50.2084L108.653 50.9029C107.686 52.0778 106.181 52.6855 104.52 52.6855C101.21 52.6855 98.8829 50.382 98.8829 47.1293C98.8829 43.8766 101.129 41.5731 104.127 41.5731C107.125 41.5731 109.347 43.8361 109.347 47.0888C109.347 47.1698 109.324 47.2798 109.324 47.384L109.318 47.3782ZM99.9247 46.5621H108.311C108.166 44.1949 106.447 42.4934 104.121 42.4934C101.794 42.4934 100.098 44.1718 99.9305 46.5621H99.9247Z" fill="#37251C"/>
<path d="M122.219 47.3782H112.808C112.912 49.9769 114.822 51.7363 117.444 51.7363C118.827 51.7363 120.106 51.2328 120.946 50.2084L121.553 50.9029C120.587 52.0778 119.082 52.6855 117.421 52.6855C114.11 52.6855 111.784 50.382 111.784 47.1293C111.784 43.8766 114.029 41.5731 117.027 41.5731C120.025 41.5731 122.248 43.8361 122.248 47.0888C122.248 47.1698 122.225 47.2798 122.225 47.384L122.219 47.3782ZM112.825 46.5621H121.212C121.067 44.1949 119.348 42.4934 117.022 42.4934C114.695 42.4934 112.999 44.1718 112.831 46.5621H112.825Z" fill="#37251C"/>
<path d="M134.963 51.9157C134.425 52.4366 133.551 52.6855 132.741 52.6855C130.831 52.6855 129.795 51.5627 129.795 49.7337V42.6496H127.804V41.7583H129.795V39.3911H130.831V41.7583H134.281V42.6496H130.831V49.6296C130.831 51.0186 131.514 51.7884 132.845 51.7884C133.488 51.7884 134.09 51.58 134.529 51.1865L134.963 51.9157Z" fill="#C92E17"/>
<path d="M137.024 47.1814C137.024 43.9634 139.327 41.6772 142.441 41.6772C145.555 41.6772 147.859 43.9634 147.859 47.1814C147.859 50.3993 145.555 52.6855 142.441 52.6855C139.327 52.6855 137.024 50.3993 137.024 47.1814ZM146.805 47.1814C146.805 44.4611 144.936 42.6149 142.441 42.6149C139.947 42.6149 138.083 44.4611 138.083 47.1814C138.083 49.9016 139.953 51.7479 142.441 51.7479C144.93 51.7479 146.805 49.9016 146.805 47.1814Z" fill="#C92E17"/>
<path d="M160.221 41.764V52.6044H159.226V50.2778C158.519 51.7941 157.044 52.6854 155.134 52.6854C152.373 52.6854 150.608 51.1285 150.608 48.0958V41.764H151.644V48.0148C151.644 50.463 152.952 51.7536 155.215 51.7536C157.663 51.7536 159.179 50.1157 159.179 47.5402V41.7698H160.215L160.221 41.764Z" fill="#C92E17"/>
<path d="M168.092 41.6772V42.6959C168.011 42.6959 167.925 42.6727 167.844 42.6727C165.436 42.6727 164 44.2701 164 46.9498V52.5987H162.964V41.7583H163.96V44.1254C164.626 42.5454 166.055 41.6772 168.092 41.6772Z" fill="#C92E17"/>
</g>
<defs>
<clipPath id="clip0_557_89">
<rect width="200" height="58.2591" fill="white"/>
</clipPath>
</defs>
</svg>
